<?xml version="1.0" encoding="UTF-8"?>

<svg version="1.2" baseProfile="tiny" width="210mm" height="297mm" viewBox="0 0 21000 29700" preserveAspectRatio="xMidYMid" fill-rule="evenodd" stroke-width="28.222" stroke-linejoin="round" xmlns="http://www.w3.org/2000/svg" xmlns:xlink="http://www.w3.org/1999/xlink" xml:space="preserve">
 <g visibility="visible" id="MasterSlide_1_Standard">
  <desc>Master slide
  </desc>
  <rect fill="none" stroke="none" x="0" y="0" width="16" height="16"/>
 </g>
 <g visibility="visible" id="Slide_1_page1">
  <g>
   <path fill="rgb(197,0,11)" stroke="rgb(255,255,255)" id="Drawing_1_0" stroke-linejoin="round" d="M 500,4600 L 0,4600 0,0 1000,0 1000,4600 500,4600 Z"/>
  </g>
  <g>
   <path fill="rgb(0,0,0)" stroke="rgb(255,255,255)" id="Drawing_2_0" stroke-linejoin="round" d="M 1500,1300 L 1000,1300 1000,200 2000,200 2000,1300 1500,1300 Z"/>
  </g>
  <g>
   <path fill="rgb(0,0,0)" stroke="rgb(255,255,255)" id="Drawing_3_0" stroke-linejoin="round" d="M 2500,1300 L 2000,1300 2000,200 3000,200 3000,1300 2500,1300 Z"/>
  </g>
  <g>
   <path fill="rgb(0,0,0)" stroke="rgb(255,255,255)" id="Drawing_4_0" stroke-linejoin="round" d="M 3600,1200 L 3100,1200 3100,100 4100,100 4100,1200 3600,1200 Z"/>
  </g>
  <g>
   <path fill="rgb(0,0,0)" stroke="rgb(255,255,255)" id="Drawing_5_0" stroke-linejoin="round" d="M 1500,2400 L 1000,2400 1000,1300 2000,1300 2000,2400 1500,2400 Z"/>
  </g>
  <g>
   <path fill="rgb(0,0,0)" stroke="rgb(255,255,255)" id="Drawing_6_0" stroke-linejoin="round" d="M 2500,2400 L 2000,2400 2000,1300 3000,1300 3000,2400 2500,2400 Z"/>
  </g>
  <g>
   <path fill="rgb(0,0,0)" stroke="rgb(255,255,255)" id="Drawing_7_0" stroke-linejoin="round" d="M 1500,3400 L 1000,3400 1000,2300 2000,2300 2000,3400 1500,3400 Z"/>
  </g>
  <g>
   <path fill="rgb(0,0,0)" stroke="rgb(255,255,255)" id="Drawing_8_0" stroke-linejoin="round" d="M 1500,4400 L 1000,4400 1000,3300 2000,3300 2000,4400 1500,4400 Z"/>
  </g>
  <g>
   <path fill="rgb(0,0,0)" stroke="rgb(255,255,255)" id="Drawing_9_0" stroke-linejoin="round" d="M 3500,2300 L 3000,2300 3000,1300 4000,1300 4000,2300 3500,2300 Z"/>
  </g>
  <g>
   <path fill="rgb(0,0,0)" stroke="rgb(255,255,255)" id="Drawing_10_0" stroke-linejoin="round" d="M 4700,1100 L 4200,1100 4200,0 5200,0 5200,1100 4700,1100 Z"/>
  </g>
  <g>
   <path fill="rgb(0,0,0)" stroke="rgb(255,255,255)" id="Drawing_11_0" stroke-linejoin="round" d="M 4600,2200 L 4100,2200 4100,1200 5100,1200 5100,2200 4600,2200 Z"/>
  </g>
  <g>
   <path fill="rgb(0,0,0)" stroke="rgb(255,255,255)" id="Drawing_12_0" stroke-linejoin="round" d="M 2500,3300 L 2000,3300 2000,2300 3000,2300 3000,3300 2500,3300 Z"/>
  </g>
  <g>
   <path fill="rgb(0,0,0)" stroke="rgb(255,255,255)" id="Drawing_13_0" stroke-linejoin="round" d="M 3500,3300 L 3000,3300 3000,2300 4000,2300 4000,3300 3500,3300 Z"/>
  </g>
  <g>
   <path fill="rgb(0,0,0)" stroke="rgb(255,255,255)" id="Drawing_14_0" stroke-linejoin="round" d="M 2500,4400 L 2000,4400 2000,3300 3000,3300 3000,4400 2500,4400 Z"/>
  </g>
  <g>
   <path fill="rgb(0,0,0)" stroke="rgb(255,255,255)" id="Drawing_15_0" stroke-linejoin="round" d="M 3500,4400 L 3000,4400 3000,3300 4000,3300 4000,4400 3500,4400 Z"/>
  </g>
  <g>
   <path fill="rgb(0,0,0)" stroke="rgb(255,255,255)" id="Drawing_16_0" stroke-linejoin="round" d="M 4500,3300 L 4000,3300 4000,2300 5000,2300 5000,3300 4500,3300 Z"/>
  </g>
  <g>
   <path fill="rgb(0,0,0)" stroke="rgb(255,255,255)" id="Drawing_17_0" stroke-linejoin="round" d="M 4500,4400 L 4000,4400 4000,3300 5000,3300 5000,4400 4500,4400 Z"/>
  </g>
 </g>
</svg>